<svg width="27" height="24" viewBox="0 0 27 24" fill="none" xmlns="http://www.w3.org/2000/svg">
<path d="M1 0.865967H4.84C5.85 0.865967 6.7 1.51545 6.83 2.39008L8.71 15.7174C8.83 16.5834 9.68 17.2415 10.7 17.2415H23.26" stroke="black" stroke-miterlimit="10" stroke-linecap="round"/>
<path d="M7.02002 3.74965H23.58C24.83 3.74965 25.77 4.7282 25.55 5.79335L24.07 12.7384C23.89 13.5611 23.07 14.1586 22.1 14.1586H12.13" stroke="black" stroke-miterlimit="10" stroke-linecap="round"/>
<path d="M10.55 22.5326C11.6104 22.5326 12.47 21.7882 12.47 20.8699C12.47 19.9517 11.6104 19.2073 10.55 19.2073C9.48962 19.2073 8.63 19.9517 8.63 20.8699C8.63 21.7882 9.48962 22.5326 10.55 22.5326Z" stroke="black" stroke-miterlimit="10" stroke-linecap="round"/>
<path d="M21.34 22.5326C22.4004 22.5326 23.26 21.7882 23.26 20.8699C23.26 19.9517 22.4004 19.2073 21.34 19.2073C20.2797 19.2073 19.42 19.9517 19.42 20.8699C19.42 21.7882 20.2797 22.5326 21.34 22.5326Z" stroke="black" stroke-miterlimit="10" stroke-linecap="round"/>
</svg>
