<svg width="36" height="60" viewBox="0 0 36 60" fill="none" xmlns="http://www.w3.org/2000/svg">
<path d="M12.11 27V8.065H0.875V0.959999H33.285V8.065H22.05V27H12.11ZM19.565 59.49H16.38C1.995 59.49 0.49 53.645 0.49 50.25V49.9H11.41C11.515 51.3 12.25 53.575 17.92 53.575H18.235C23.8 53.575 24.605 52.385 24.605 51.125V51.09C24.605 49.76 23.94 48.92 18.48 48.745L13.65 48.605C3.57 48.325 0.875 44.79 0.875 40.765V40.45C0.875 36.215 3.71 32.505 15.855 32.505H18.97C31.85 32.505 34.79 36.6 34.79 40.73V41.01H23.975C23.87 40.065 23.31 38.245 17.675 38.245H17.325C12.11 38.245 11.585 39.155 11.585 40.17V40.205C11.585 41.255 12.355 42.095 17.255 42.2L21.945 42.305C31.85 42.585 35.7 44.895 35.7 50.145V50.635C35.7 55.01 33.25 59.49 19.565 59.49Z" fill="#0B0B0D"/>
</svg>
