<svg width="40" height="25" viewBox="0 0 40 25" fill="none" xmlns="http://www.w3.org/2000/svg">
<path d="M9.14 18.01C12.84 22.2 13.15 22.13 15.45 23.7H22.34V16.23C23.75 16.73 26.05 17.75 28.23 19.85C29.65 21.22 30.57 22.62 31.16 23.69H39.3C38.41 22 37.11 19.92 35.23 17.78C33.53 15.84 31.82 14.38 30.38 13.32C31.65 12.15 33.07 10.64 34.45 8.76C36.55 5.9 37.83 3.15 38.62 1H30.09C29.94 2.3 29.42 5.16 27.28 7.98C25.34 10.54 23.03 11.8 21.85 12.34V1.01H15.06V14.2C13.89 13.73 12 11.71 10.31 9.84C7.18 6.35 7.02 2.2 7.01 1.01H1C1.39 3.57 2.2 6.87 3.91 10.42C4.61 11.87 4.57 11.99 5.39 13.2" stroke="white" stroke-linecap="round" stroke-linejoin="round"/>
</svg>
