<svg width="34" height="38" viewBox="0 0 34 38" fill="none" xmlns="http://www.w3.org/2000/svg">
<path d="M10.8708 33.5431L6.53083 36.8531V27.8332C5.67083 27.0232 0.43083 21.9631 1.05083 15.1631C1.83083 6.54314 11.6508 -0.966856 20.9208 1.46314C27.7008 3.24314 33.5208 10.1531 32.4508 18.1331C31.5108 25.1731 25.4908 30.7731 18.0608 31.2631" stroke="white" stroke-linecap="round" stroke-linejoin="round"/>
<path d="M14.9808 11.9631L13.2808 10.4731C12.7308 9.98308 11.8708 10.0931 11.4508 10.7031L10.1108 12.6331C9.70081 13.2231 9.79081 14.0331 10.3308 14.5131L19.1208 22.3431C19.5708 22.7431 20.2408 22.7731 20.7308 22.4231L22.2708 21.3131C22.7508 20.9631 22.8008 20.2531 22.3608 19.8531L20.3608 18.0131" stroke="white" stroke-linecap="round" stroke-linejoin="round"/>
</svg>
