<svg width="34" height="38" viewBox="0 0 34 38" fill="none" xmlns="http://www.w3.org/2000/svg">
<path d="M10.8708 33.9701L6.53083 37.3105V28.2077C5.67083 27.3903 0.43083 22.2839 1.05083 15.4215C1.83083 6.72241 11.6508 -0.856483 20.9208 1.59581C27.7008 3.39214 33.5208 10.3655 32.4508 18.4187C31.5108 25.5233 25.4908 31.1747 18.0608 31.6692" stroke="black" stroke-linecap="round" stroke-linejoin="round"/>
<path d="M14.9807 12.1921L13.2807 10.6885C12.7307 10.194 11.8707 10.305 11.4507 10.9206L10.1107 12.8683C9.70069 13.4637 9.79069 14.2811 10.3307 14.7655L19.1207 22.6674C19.5707 23.071 20.2407 23.1013 20.7307 22.7481L22.2707 21.6279C22.7507 21.2747 22.8007 20.5582 22.3607 20.1545L20.3607 18.2977" stroke="black" stroke-linecap="round" stroke-linejoin="round"/>
</svg>
