<svg width="60" height="60" viewBox="0 0 60 60" fill="none" xmlns="http://www.w3.org/2000/svg">
<circle cx="30" cy="30" r="29.5" fill="white" stroke="#0B0B0D"/>
<path d="M42.8868 39.4852C44.8434 36.8312 46 33.5509 46 30C46 21.1634 38.8366 14 30 14C21.1634 14 14 21.1634 14 30C14 32.9274 14.7864 35.6718 16.1589 38.0323L14 45.713L22.0761 43.9035C24.4122 45.238 27.1171 46 30 46C33.05 46 35.9006 45.1462 38.3265 43.6653" stroke="black" stroke-linecap="round" stroke-linejoin="round"/>
<path d="M27.0939 27.5249C27.0939 27.5249 25.696 28.2845 26.8906 29.7117C28.4405 31.9866 30.3628 33.0263 31.6023 33.7629C32.8419 34.4995 33.1576 33.8318 33.1576 33.8318C33.1576 33.8318 33.9015 32.9115 34.2847 32.3127C34.6679 31.7139 35.2095 31.9903 35.2095 31.9903C35.2095 31.9903 37.8244 33.3027 38.3884 33.5783C38.9524 33.8538 38.9524 33.8777 38.9974 34.6831C39.0424 35.4886 38.5242 37.2841 35.9084 37.9059C33.2935 38.5277 29.0324 35.9037 27.5895 34.8448C26.1467 33.7858 22.9227 30.08 22.2238 27.5708C21.5249 25.0617 22.6295 23.6115 23.261 22.806C23.8924 22.0006 24.523 22.0235 25.2678 22.0006C26.0126 21.9776 26.3275 22.6683 26.3275 22.6683C26.3275 22.6683 27.6813 25.5292 27.7253 26.3741C27.7487 26.8232 27.0939 27.5249 27.0939 27.5249Z" stroke="black" stroke-miterlimit="10"/>
</svg>
