<svg width="17" height="17" viewBox="0 0 17 17" fill="none" xmlns="http://www.w3.org/2000/svg">
<path d="M3.42285e-08 15.1421C-7.91831e-09 15.6944 0.447715 16.1421 1 16.1421L10 16.1421C10.5523 16.1421 11 15.6944 11 15.1421C11 14.5898 10.5523 14.1421 10 14.1421L2 14.1421L2 6.14209C2 5.58981 1.55228 5.14209 1 5.14209C0.447715 5.14209 -5.00652e-08 5.58981 -5.00652e-08 6.14209L3.42285e-08 15.1421ZM16.1421 0.999954C16.1421 0.447669 15.6944 -4.57987e-05 15.1421 -4.60516e-05L6.14214 -4.52508e-05C5.58985 -4.5588e-05 5.14214 0.44767 5.14214 0.999954C5.14214 1.55224 5.58985 1.99995 6.14214 1.99995L14.1421 1.99995L14.1421 9.99995C14.1421 10.5522 14.5899 11 15.1421 11C15.6944 11 16.1421 10.5522 16.1421 9.99995L16.1421 0.999954ZM1 15.1421L1.70711 15.8492L15.8492 1.70706L15.1421 0.999954L14.435 0.292848L0.292893 14.435L1 15.1421Z" fill="black"/>
</svg>
