<svg width="30" height="13" viewBox="0 0 30 13" fill="none" xmlns="http://www.w3.org/2000/svg">
<path d="M5.19 12V3.885H0.375V0.84H14.265V3.885H9.45V12H5.19ZM22.9895 12.21H21.6245C15.4595 12.21 14.8145 9.705 14.8145 8.25V8.1H19.4945C19.5395 8.7 19.8545 9.675 22.2845 9.675H22.4195C24.8045 9.675 25.1495 9.165 25.1495 8.625V8.61C25.1495 8.04 24.8645 7.68 22.5245 7.605L20.4545 7.545C16.1345 7.425 14.9795 5.91 14.9795 4.185V4.05C14.9795 2.235 16.1945 0.645 21.3995 0.645H22.7345C28.2545 0.645 29.5145 2.4 29.5145 4.17V4.29H24.8795C24.8345 3.885 24.5945 3.105 22.1795 3.105H22.0295C19.7945 3.105 19.5695 3.495 19.5695 3.93V3.945C19.5695 4.395 19.8995 4.755 21.9995 4.8L24.0095 4.845C28.2545 4.965 29.9045 5.955 29.9045 8.205V8.415C29.9045 10.29 28.8545 12.21 22.9895 12.21Z" fill="white"/>
</svg>
