<svg width="14" height="7" viewBox="0 0 14 7" fill="none" xmlns="http://www.w3.org/2000/svg">
<path d="M2.38782 6V2.213H0.14082V0.792H6.62282V2.213H4.37582V6H2.38782ZM10.6943 6.098H10.0573C7.18025 6.098 6.87925 4.929 6.87925 4.25V4.18H9.06325C9.08425 4.46 9.23125 4.915 10.3653 4.915H10.4283C11.5413 4.915 11.7023 4.677 11.7023 4.425V4.418C11.7023 4.152 11.5693 3.984 10.4772 3.949L9.51125 3.921C7.49525 3.865 6.95625 3.158 6.95625 2.353V2.29C6.95625 1.443 7.52325 0.701 9.95225 0.701H10.5753C13.1513 0.701 13.7393 1.52 13.7393 2.346V2.402H11.5763C11.5553 2.213 11.4433 1.849 10.3162 1.849H10.2463C9.20325 1.849 9.09825 2.031 9.09825 2.234V2.241C9.09825 2.451 9.25225 2.619 10.2323 2.64L11.1703 2.661C13.1513 2.717 13.9213 3.179 13.9213 4.229V4.327C13.9213 5.202 13.4313 6.098 10.6943 6.098Z" fill="#0B0B0D"/>
</svg>
